<svg xmlns="http://www.w3.org/2000/svg" xmlns:xlink="http://www.w3.org/1999/xlink" width="500" zoomAndPan="magnify" viewBox="0 0 375 374.999991" height="500" preserveAspectRatio="xMidYMid meet" version="1.0"><defs><clipPath id="80b69c4979"><path d="M 0 11.015625 L 323 11.015625 L 323 271 L 0 271 Z M 0 11.015625 " clip-rule="nonzero"/></clipPath><clipPath id="2d0e06ba57"><path d="M 102.75 285 L 140.25 285 L 140.25 322.5 L 102.75 322.5 Z M 102.75 285 " clip-rule="nonzero"/></clipPath><clipPath id="4b5a00b534"><path d="M 121.5 285 C 111.144531 285 102.75 293.394531 102.75 303.75 C 102.75 314.105469 111.144531 322.5 121.5 322.5 C 131.855469 322.5 140.25 314.105469 140.25 303.75 C 140.25 293.394531 131.855469 285 121.5 285 Z M 121.5 285 " clip-rule="nonzero"/></clipPath><clipPath id="63a6a937f6"><path d="M 0.75 0 L 38.25 0 L 38.25 37.5 L 0.75 37.5 Z M 0.75 0 " clip-rule="nonzero"/></clipPath><clipPath id="b98319a483"><path d="M 19.5 0 C 9.144531 0 0.75 8.394531 0.75 18.75 C 0.75 29.105469 9.144531 37.5 19.5 37.5 C 29.855469 37.5 38.25 29.105469 38.25 18.75 C 38.25 8.394531 29.855469 0 19.5 0 Z M 19.5 0 " clip-rule="nonzero"/></clipPath><clipPath id="68a8730751"><rect x="0" width="39" y="0" height="38"/></clipPath></defs><path fill="#000000" d="M 196.910156 69.6875 C 238.25 69.6875 279.589844 69.675781 320.933594 69.65625 C 324.503906 69.65625 327.921875 69.832031 331.085938 71.789062 C 335.019531 74.230469 337.515625 79.191406 336.722656 83.703125 C 333.875 99.835938 330.921875 115.953125 328.082031 132.097656 C 324.535156 152.144531 321.015625 172.195312 317.515625 192.25 C 317.230469 193.859375 316.808594 195.449219 316.417969 197.039062 C 314.753906 203.78125 311.097656 207.117188 304.273438 207.6875 C 290.960938 208.777344 277.636719 209.652344 264.332031 210.757812 C 250.109375 211.945312 235.902344 213.304688 221.679688 214.5625 C 215.617188 215.097656 209.550781 215.59375 203.480469 216.050781 C 188.976562 217.128906 174.507812 218.121094 160.027344 219.238281 C 142.054688 220.621094 124.082031 222.058594 106.113281 223.546875 C 101.683594 223.902344 97.265625 224.621094 92.839844 224.683594 C 86.523438 224.769531 82.085938 221.296875 80.804688 215.03125 C 78.734375 204.957031 77.039062 194.800781 75.203125 184.675781 C 71.058594 161.886719 66.917969 139.097656 62.792969 116.300781 C 60.914062 105.949219 59.019531 95.59375 57.191406 85.230469 C 55.6875 76.703125 61.261719 70.007812 70.082031 69.746094 C 73.839844 69.636719 77.597656 69.722656 81.355469 69.722656 Z M 145.816406 128.769531 L 133.867188 128.769531 C 133.632812 128.769531 133.386719 128.769531 133.167969 128.769531 C 127.230469 128.738281 126.632812 128.019531 127.128906 134.738281 C 127.714844 142.671875 128.261719 150.605469 128.917969 158.527344 C 129.207031 161.972656 129.992188 162.574219 133.339844 162.355469 C 138.9375 161.992188 144.527344 161.609375 150.113281 161.199219 C 153.832031 160.917969 157.539062 160.488281 161.261719 160.257812 C 163.679688 160.113281 165.390625 159.742188 164.398438 156.59375 C 163.992188 155.308594 164.253906 153.804688 164.230469 152.394531 C 164.125 145.621094 163.960938 138.800781 163.949219 132 C 163.949219 129.558594 162.914062 128.707031 160.566406 128.75 C 155.652344 128.832031 150.742188 128.769531 145.816406 128.769531 Z M 198.214844 85.125 C 192.605469 85.125 186.984375 85.1875 181.371094 85.097656 C 179.019531 85.0625 177.929688 85.871094 178.066406 88.34375 C 178.488281 96.277344 178.816406 104.210938 179.1875 112.148438 C 179.269531 113.875 180.238281 114.570312 181.910156 114.570312 C 184.71875 114.542969 187.527344 114.570312 190.332031 114.570312 C 198.066406 114.570312 205.800781 114.539062 213.5 114.570312 C 215.6875 114.570312 217.226562 113.859375 217.277344 111.480469 C 217.457031 103.515625 217.574219 95.554688 217.675781 87.59375 C 217.675781 85.90625 216.816406 85.085938 215.066406 85.097656 C 209.453125 85.148438 203.835938 85.125 198.214844 85.125 Z M 254.269531 85.125 C 248.652344 85.125 243.039062 85.171875 237.421875 85.125 C 234.933594 85.097656 233.3125 85.886719 233.265625 88.632812 C 233.144531 96.378906 233.054688 104.089844 232.910156 111.820312 C 232.871094 113.972656 233.988281 114.609375 235.949219 114.601562 C 246.71875 114.574219 257.480469 114.601562 268.246094 114.601562 C 269.832031 114.601562 270.976562 114.023438 271.105469 112.265625 C 271.695312 104.347656 272.238281 96.425781 272.855469 88.507812 C 273.039062 86.144531 272.164062 85.082031 269.710938 85.121094 C 264.566406 85.191406 259.417969 85.128906 254.269531 85.125 Z M 143.238281 85.125 C 137.621094 85.125 132.003906 85.058594 126.386719 85.148438 C 123 85.203125 122.789062 85.328125 123 88.84375 C 123.445312 96.308594 124.136719 103.761719 124.6875 111.21875 C 124.890625 113.96875 126.519531 114.609375 128.980469 114.609375 C 139.046875 114.539062 149.117188 114.515625 159.183594 114.632812 C 161.878906 114.664062 163 113.769531 162.933594 111.03125 C 162.742188 103.535156 162.578125 96.027344 162.621094 88.535156 C 162.621094 85.550781 161.136719 85.070312 158.695312 85.109375 C 153.539062 85.171875 148.390625 85.121094 143.238281 85.125 Z M 198.445312 128.773438 C 193.285156 128.773438 188.121094 128.820312 182.972656 128.75 C 180.792969 128.71875 179.363281 129.152344 179.496094 131.796875 C 179.921875 140.21875 180.25 148.648438 180.628906 157.074219 C 180.707031 158.734375 181.488281 159.628906 183.28125 159.527344 C 191.695312 159.042969 200.113281 158.628906 208.523438 158.121094 C 210.148438 158.019531 211.742188 157.519531 213.359375 157.371094 C 215.496094 157.175781 216.007812 155.917969 216.023438 154.019531 C 216.089844 146.761719 216.109375 139.457031 216.371094 132.183594 C 216.480469 129.167969 215.007812 128.6875 212.53125 128.734375 C 207.832031 128.832031 203.136719 128.761719 198.445312 128.773438 Z M 251.195312 128.773438 C 245.796875 128.773438 240.40625 128.796875 235.011719 128.773438 C 233.117188 128.773438 231.890625 129.257812 231.871094 131.496094 C 231.800781 139.007812 231.652344 146.5 231.53125 154.03125 C 231.496094 156.160156 232.5 156.832031 234.605469 156.6875 C 241.859375 156.203125 249.085938 155.898438 256.324219 155.429688 C 259.113281 155.25 261.882812 154.730469 264.671875 154.527344 C 266.425781 154.398438 267.128906 153.425781 267.363281 151.890625 C 267.652344 150.046875 267.984375 148.207031 268.152344 146.355469 C 268.589844 141.695312 268.886719 137.023438 269.351562 132.375 C 269.65625 129.308594 269.390625 128.855469 265.96875 128.792969 C 261.046875 128.691406 256.132812 128.757812 251.195312 128.757812 Z M 96.359375 128.773438 C 93.066406 128.773438 89.777344 128.726562 86.488281 128.773438 C 81.707031 128.859375 81.4375 128.933594 82.105469 133.476562 C 83.46875 142.738281 85.117188 151.953125 86.730469 161.171875 C 87.023438 162.847656 87.839844 164.328125 89.941406 164.25 C 96.507812 164.023438 103.085938 163.964844 109.632812 163.460938 C 113.097656 163.195312 113.5 162.496094 113.292969 158.882812 C 112.785156 150.691406 112.09375 142.507812 111.441406 134.324219 C 111.386719 133.632812 110.957031 132.972656 110.914062 132.285156 C 110.742188 129.753906 109.6875 128.535156 106.921875 128.710938 C 103.410156 128.929688 99.878906 128.761719 96.359375 128.757812 Z M 165.679688 189.359375 L 165.304688 189.359375 C 165.304688 185.367188 165.347656 181.371094 165.304688 177.375 C 165.269531 175 164.03125 174.113281 161.628906 174.472656 C 158.855469 174.859375 156.042969 175 153.246094 175.195312 C 146.960938 175.628906 140.636719 176.113281 134.328125 176.410156 C 131.824219 176.523438 131.09375 177.675781 131.277344 179.960938 C 131.902344 187.671875 132.460938 195.382812 133.054688 203.097656 C 133.246094 205.519531 135.027344 205.386719 136.675781 205.28125 C 145.328125 204.71875 153.964844 204.050781 162.613281 203.5625 C 165.128906 203.421875 165.761719 202.164062 165.71875 199.953125 C 165.625 196.410156 165.679688 192.882812 165.679688 189.359375 Z M 90.078125 85.128906 C 85.632812 85.128906 81.195312 85.207031 76.757812 85.101562 C 74.253906 85.042969 73.375 86.070312 73.808594 88.488281 C 75.207031 96.039062 76.660156 103.582031 77.921875 111.15625 C 78.363281 113.8125 79.761719 114.621094 82.226562 114.601562 C 90.175781 114.542969 98.117188 114.523438 106.058594 114.601562 C 108.621094 114.628906 109.28125 113.386719 109.097656 111.136719 C 108.492188 103.695312 107.886719 96.25 107.371094 88.808594 C 107.191406 86.214844 106.035156 85.046875 103.398438 85.105469 C 98.957031 85.199219 94.515625 85.128906 90.078125 85.128906 Z M 214.945312 186.203125 C 214.945312 181.824219 214.988281 177.820312 214.945312 173.828125 C 214.945312 172.175781 214.191406 171.496094 212.277344 171.640625 C 205.734375 172.125 199.167969 172.308594 192.617188 172.722656 C 189.589844 172.914062 186.589844 173.476562 183.5625 173.660156 C 181.378906 173.789062 180.851562 174.898438 180.890625 176.84375 C 181.039062 183.425781 181.070312 190.011719 181.21875 196.59375 C 181.246094 197.746094 181.371094 199.042969 181.933594 199.980469 C 182.417969 200.777344 183.601562 201.675781 184.4375 201.636719 C 190.28125 201.371094 196.136719 201.011719 201.957031 200.402344 C 206.074219 199.96875 210.144531 199.097656 214.234375 198.417969 C 214.464844 194.214844 214.71875 190.011719 214.945312 186.203125 Z M 230.414062 184.636719 L 230.226562 184.636719 C 230.226562 187.683594 230.191406 190.738281 230.226562 193.789062 C 230.285156 197.859375 230.324219 198.042969 234.011719 197.746094 C 243.097656 197.011719 252.160156 196.078125 261.234375 195.238281 C 262.792969 195.097656 263.839844 194.589844 263.976562 192.777344 C 264.460938 186.242188 265.132812 179.710938 265.496094 173.179688 C 265.730469 169.015625 265.164062 168.660156 261.25 169.03125 C 258.925781 169.25 256.59375 169.441406 254.257812 169.515625 C 249.335938 169.710938 244.394531 169.59375 239.5 170.03125 C 230.546875 170.828125 230.554688 170.953125 230.414062 179.710938 C 230.394531 181.335938 230.417969 182.976562 230.417969 184.621094 Z M 305.109375 85.128906 C 301.351562 85.128906 297.601562 85.082031 293.84375 85.128906 C 289.699219 85.191406 289.390625 85.199219 288.886719 89.152344 C 287.949219 96.574219 287.4375 104.046875 286.703125 111.5 C 286.511719 113.519531 287.269531 114.574219 289.425781 114.5625 C 296.933594 114.535156 304.441406 114.507812 311.949219 114.59375 C 314.53125 114.621094 315.738281 113.570312 316.164062 111.011719 C 317.417969 103.402344 318.824219 95.820312 320.214844 88.238281 C 320.589844 86.191406 320.019531 85.089844 317.800781 85.109375 C 313.554688 85.160156 309.316406 85.128906 305.109375 85.128906 Z M 117.28125 202.730469 C 116.769531 195.957031 116.277344 189.179688 115.71875 182.40625 C 115.640625 181.484375 115.140625 180.601562 115.042969 179.679688 C 114.820312 177.605469 113.757812 176.9375 111.722656 177.097656 C 105.886719 177.550781 100.035156 177.871094 94.195312 178.257812 C 90.554688 178.5 90.09375 178.933594 90.691406 182.511719 C 92.015625 190.355469 93.503906 198.175781 94.890625 206.011719 C 95.230469 207.949219 96.207031 208.96875 98.214844 208.8125 C 103.117188 208.4375 108.019531 208.03125 112.921875 207.65625 C 117.507812 207.304688 117.507812 207.320312 117.28125 202.75 Z M 299.355469 128.761719 C 295.597656 128.761719 291.84375 128.808594 288.089844 128.761719 C 286.023438 128.730469 285.234375 129.6875 285.078125 131.695312 C 284.59375 137.988281 283.96875 144.277344 283.421875 150.597656 C 283.179688 153.332031 283.765625 153.988281 286.320312 153.789062 C 290.054688 153.511719 293.773438 153.109375 297.503906 152.863281 C 300.3125 152.683594 303.164062 152.863281 305.933594 152.472656 C 307.058594 152.308594 308.714844 151.136719 308.917969 150.167969 C 310.179688 144.222656 311.089844 138.199219 312.125 132.203125 C 312.519531 129.886719 311.757812 128.667969 309.222656 128.738281 C 305.929688 128.835938 302.644531 128.761719 299.355469 128.761719 Z M 284.28125 193.660156 C 289.332031 193.175781 293.984375 192.695312 298.644531 192.316406 C 300.535156 192.15625 301.71875 191.347656 302.027344 189.414062 C 303.203125 182.496094 304.40625 175.585938 305.472656 168.65625 C 305.558594 168.109375 304.664062 166.863281 304.265625 166.882812 C 297.257812 167.207031 290.253906 167.617188 283.257812 168.117188 C 281.488281 168.25 281.289062 169.769531 281.167969 171.257812 C 280.726562 176.859375 280.199219 182.453125 279.75 188.058594 C 279.65625 189.222656 279.390625 190.476562 279.75 191.542969 C 280.03125 192.390625 281.023438 193.203125 281.894531 193.578125 C 282.6875 193.945312 283.738281 193.660156 284.28125 193.660156 Z M 284.28125 193.660156 " fill-opacity="1" fill-rule="nonzero"/><g clip-path="url(#80b69c4979)"><path fill="#000000" d="M 202.5625 270.050781 C 166.609375 270.050781 130.648438 269.972656 94.699219 270.117188 C 87.449219 270.144531 81.460938 268.03125 76.453125 262.761719 C 69.417969 255.359375 68.890625 243.625 73.902344 234.570312 C 75.71875 231.285156 77.769531 228.113281 79.367188 224.730469 C 80.164062 223.054688 80.4375 221.296875 80.191406 219.457031 C 75.410156 192.496094 70.433594 165.5625 65.652344 138.605469 C 61.214844 113.710938 56.949219 88.792969 52.574219 63.882812 C 51.125 55.578125 49.605469 47.289062 48.257812 38.96875 C 47.742188 35.804688 46.324219 34.132812 42.984375 33.585938 C 33.746094 32.074219 24.558594 30.234375 15.375 28.535156 C 12.613281 28.027344 9.824219 27.660156 7.085938 27.054688 C 2.738281 26.085938 0.0195312 22.46875 0.464844 18.445312 C 0.949219 14.242188 4.816406 11.09375 9.558594 11.671875 C 15.359375 12.402344 21.097656 13.566406 26.855469 14.613281 C 36.980469 16.445312 47.082031 18.394531 57.226562 20.140625 C 59.675781 20.5625 60.855469 21.535156 61.269531 24.074219 C 62.398438 31 63.824219 37.875 65.082031 44.78125 C 68.800781 65.28125 72.566406 85.773438 76.171875 106.292969 C 80.675781 131.890625 84.992188 157.519531 89.46875 183.121094 C 91.644531 195.5625 93.992188 207.980469 96.300781 220.386719 C 96.910156 223.660156 96.832031 226.582031 94.800781 229.582031 C 92.070312 233.660156 90.25 238.351562 87.550781 242.457031 C 84.328125 247.367188 87.238281 255.128906 94.707031 254.460938 C 96.339844 254.316406 97.996094 254.460938 99.640625 254.460938 L 309.730469 254.460938 C 311.605469 254.460938 313.515625 254.3125 315.359375 254.578125 C 315.855469 254.644531 316.339844 254.761719 316.816406 254.925781 C 317.289062 255.089844 317.746094 255.296875 318.179688 255.546875 C 318.613281 255.800781 319.023438 256.089844 319.402344 256.421875 C 319.777344 256.75 320.121094 257.113281 320.429688 257.511719 C 320.738281 257.90625 321.007812 258.328125 321.234375 258.777344 C 321.460938 259.226562 321.644531 259.691406 321.78125 260.175781 C 321.917969 260.660156 322.007812 261.152344 322.046875 261.652344 C 322.089844 262.152344 322.085938 262.652344 322.03125 263.152344 C 321.648438 267.398438 319.152344 269.757812 314.652344 270.015625 C 312.78125 270.125 310.894531 270.054688 309.015625 270.054688 Z M 202.5625 270.050781 " fill-opacity="1" fill-rule="nonzero"/></g><path fill="#000000" d="M 264.082031 302.757812 C 263.117188 290.660156 274.71875 276.496094 289.671875 276.734375 C 303.910156 276.953125 315.714844 286.953125 315.917969 302.140625 C 316.117188 316.46875 306.25 328.609375 289.972656 328.609375 C 273.054688 328.601562 263.503906 314.5 264.082031 302.757812 Z M 290.1875 290.875 C 283.164062 290.875 278.019531 295.925781 278.136719 302.753906 C 278.246094 309.300781 283.800781 314.644531 290.511719 314.65625 C 296 314.65625 302.0625 308.234375 302.015625 302.453125 C 301.941406 296.28125 296.445312 290.894531 290.167969 290.875 Z M 290.1875 290.875 " fill-opacity="1" fill-rule="nonzero"/><path fill="#000000" d="M 144.5 302.835938 C 144.441406 317.015625 132.9375 328.898438 119.328125 328.832031 C 104.480469 328.757812 93.5 317.273438 93.078125 302.367188 C 92.691406 288.527344 105.164062 276.5 119.027344 276.605469 C 132.328125 276.726562 145.734375 288.953125 144.5 302.835938 Z M 130.4375 303.480469 C 130.734375 296.707031 126.277344 291.292969 120.074219 290.898438 C 112.988281 290.46875 107.691406 295.070312 107.253906 301.742188 C 106.804688 308.605469 111.386719 314.050781 118.375 314.417969 C 119.132812 314.46875 119.886719 314.445312 120.640625 314.34375 C 121.394531 314.246094 122.128906 314.070312 122.847656 313.820312 C 123.566406 313.570312 124.25 313.253906 124.90625 312.867188 C 125.558594 312.476562 126.167969 312.027344 126.730469 311.519531 C 127.292969 311.007812 127.800781 310.445312 128.25 309.832031 C 128.699219 309.21875 129.082031 308.566406 129.402344 307.878906 C 129.71875 307.1875 129.964844 306.472656 130.140625 305.730469 C 130.316406 304.992188 130.414062 304.242188 130.4375 303.480469 Z M 130.4375 303.480469 " fill-opacity="1" fill-rule="nonzero"/><g clip-path="url(#2d0e06ba57)"><g clip-path="url(#4b5a00b534)"><g transform="matrix(1, 0, 0, 1, 102, 285)"><g clip-path="url(#68a8730751)"><g clip-path="url(#63a6a937f6)"><g clip-path="url(#b98319a483)"><path fill="#272727" d="M 0.75 0 L 38.25 0 L 38.25 37.5 L 0.75 37.5 Z M 0.75 0 " fill-opacity="1" fill-rule="nonzero"/></g></g></g></g></g></g></svg>