<svg xmlns="http://www.w3.org/2000/svg" xmlns:xlink="http://www.w3.org/1999/xlink" width="500" zoomAndPan="magnify" viewBox="0 0 375 374.999991" height="500" preserveAspectRatio="xMidYMid meet" version="1.0"><defs><clipPath id="f34ad6c067"><path d="M 0.0117188 7.824219 L 369.75 7.824219 L 369.75 69.730469 L 0.0117188 69.730469 Z M 0.0117188 7.824219 " clip-rule="nonzero"/></clipPath><clipPath id="055e784d8a"><path d="M 0.0117188 131 L 369.75 131 L 369.75 193 L 0.0117188 193 Z M 0.0117188 131 " clip-rule="nonzero"/></clipPath><clipPath id="0803b0ee04"><path d="M 0.0117188 254.019531 L 369.75 254.019531 L 369.75 316.074219 L 0.0117188 316.074219 Z M 0.0117188 254.019531 " clip-rule="nonzero"/></clipPath><clipPath id="730fbe9241"><path d="M 281.511719 280.03125 L 304.761719 280.03125 L 304.761719 283.796875 L 281.511719 283.796875 Z M 281.511719 280.03125 " clip-rule="nonzero"/></clipPath><clipPath id="79a9c24304"><path d="M 281.511719 287.472656 L 304.761719 287.472656 L 304.761719 291.328125 L 281.511719 291.328125 Z M 281.511719 287.472656 " clip-rule="nonzero"/></clipPath><clipPath id="3d5a02489f"><path d="M 281.511719 295.003906 L 304.761719 295.003906 L 304.761719 298.78125 L 281.511719 298.78125 Z M 281.511719 295.003906 " clip-rule="nonzero"/></clipPath></defs><g clip-path="url(#f34ad6c067)"><path fill="#1e1e1e" d="M 342.628906 69.484375 L 30.878906 69.484375 C 13.832031 69.484375 0.0117188 55.683594 0.0117188 38.652344 C 0.0117188 21.628906 13.832031 7.828125 30.878906 7.828125 L 342.628906 7.828125 C 359.675781 7.828125 373.496094 21.628906 373.496094 38.652344 C 373.496094 55.683594 359.675781 69.484375 342.628906 69.484375 " fill-opacity="1" fill-rule="nonzero"/></g><g clip-path="url(#055e784d8a)"><path fill="#1e1e1e" d="M 342.628906 192.808594 L 30.878906 192.808594 C 13.832031 192.808594 0.0117188 179.007812 0.0117188 161.976562 C 0.0117188 144.949219 13.832031 131.148438 30.878906 131.148438 L 342.628906 131.148438 C 359.675781 131.148438 373.496094 144.949219 373.496094 161.976562 C 373.496094 179.007812 359.675781 192.808594 342.628906 192.808594 " fill-opacity="1" fill-rule="nonzero"/></g><g clip-path="url(#0803b0ee04)"><path fill="#1e1e1e" d="M 342.628906 316.132812 L 30.878906 316.132812 C 13.832031 316.132812 0.0117188 302.332031 0.0117188 285.300781 C 0.0117188 268.269531 13.832031 254.46875 30.878906 254.46875 L 342.628906 254.46875 C 359.675781 254.46875 373.496094 268.269531 373.496094 285.300781 C 373.496094 302.332031 359.675781 316.132812 342.628906 316.132812 " fill-opacity="1" fill-rule="nonzero"/></g><g clip-path="url(#730fbe9241)"><path fill="#1e1e1e" d="M 302.84375 283.78125 L 283.433594 283.78125 C 282.375 283.78125 281.511719 282.941406 281.511719 281.90625 C 281.511719 280.871094 282.375 280.03125 283.433594 280.03125 L 302.84375 280.03125 C 303.902344 280.03125 304.761719 280.871094 304.761719 281.90625 C 304.761719 282.941406 303.902344 283.78125 302.84375 283.78125 " fill-opacity="1" fill-rule="nonzero"/></g><g clip-path="url(#79a9c24304)"><path fill="#1e1e1e" d="M 302.84375 291.28125 L 283.433594 291.28125 C 282.375 291.28125 281.511719 290.441406 281.511719 289.40625 C 281.511719 288.371094 282.375 287.53125 283.433594 287.53125 L 302.84375 287.53125 C 303.902344 287.53125 304.761719 288.371094 304.761719 289.40625 C 304.761719 290.441406 303.902344 291.28125 302.84375 291.28125 " fill-opacity="1" fill-rule="nonzero"/></g><g clip-path="url(#3d5a02489f)"><path fill="#1e1e1e" d="M 302.84375 298.78125 L 283.433594 298.78125 C 282.375 298.78125 281.511719 297.945312 281.511719 296.90625 C 281.511719 295.871094 282.375 295.03125 283.433594 295.03125 L 302.84375 295.03125 C 303.902344 295.03125 304.761719 295.871094 304.761719 296.90625 C 304.761719 297.945312 303.902344 298.78125 302.84375 298.78125 " fill-opacity="1" fill-rule="nonzero"/></g></svg>