<svg xmlns="http://www.w3.org/2000/svg" xmlns:xlink="http://www.w3.org/1999/xlink" width="500" zoomAndPan="magnify" viewBox="0 0 375 374.999991" height="500" preserveAspectRatio="xMidYMid meet" version="1.0"><defs><clipPath id="25b1be3bc1"><path d="M 246.109375 245 L 267.109375 245 L 267.109375 248 L 246.109375 248 Z M 246.109375 245 " clip-rule="nonzero"/></clipPath><clipPath id="099eaf481e"><path d="M 246.109375 239.699219 L 267.109375 239.699219 L 267.109375 242 L 246.109375 242 Z M 246.109375 239.699219 " clip-rule="nonzero"/></clipPath><clipPath id="23e2046947"><path d="M 246.117188 251.414062 L 267.101562 251.414062 L 267.101562 253.199219 L 246.117188 253.199219 Z M 246.117188 251.414062 " clip-rule="nonzero"/></clipPath><clipPath id="0e735f41e6"><path d="M 22.691406 216 L 354.941406 216 L 354.941406 375 L 22.691406 375 Z M 22.691406 216 " clip-rule="nonzero"/></clipPath><clipPath id="79b86c6ec7"><path d="M 100 3.101562 L 277 3.101562 L 277 180 L 100 180 Z M 100 3.101562 " clip-rule="nonzero"/></clipPath></defs><g clip-path="url(#25b1be3bc1)"><path fill="#000000" d="M 266.183594 247.328125 L 247.03125 247.328125 C 246.527344 247.328125 246.117188 246.933594 246.117188 246.449219 C 246.117188 245.960938 246.527344 245.566406 247.03125 245.566406 L 266.183594 245.566406 C 266.691406 245.566406 267.101562 245.960938 267.101562 246.449219 C 267.101562 246.933594 266.691406 247.328125 266.183594 247.328125 " fill-opacity="1" fill-rule="nonzero"/></g><g clip-path="url(#099eaf481e)"><path fill="#000000" d="M 266.183594 241.457031 L 247.03125 241.457031 C 246.527344 241.457031 246.117188 241.0625 246.117188 240.578125 C 246.117188 240.089844 246.527344 239.699219 247.03125 239.699219 L 266.183594 239.699219 C 266.691406 239.699219 267.101562 240.089844 267.101562 240.578125 C 267.101562 241.0625 266.691406 241.457031 266.183594 241.457031 " fill-opacity="1" fill-rule="nonzero"/></g><g clip-path="url(#23e2046947)"><path fill="#000000" d="M 266.183594 253.199219 L 247.03125 253.199219 C 246.527344 253.199219 246.117188 252.804688 246.117188 252.316406 C 246.117188 251.832031 246.527344 251.4375 247.03125 251.4375 L 266.183594 251.4375 C 266.691406 251.4375 267.101562 251.832031 267.101562 252.316406 C 267.101562 252.804688 266.691406 253.199219 266.183594 253.199219 " fill-opacity="1" fill-rule="nonzero"/></g><g clip-path="url(#0e735f41e6)"><path fill="#000000" d="M 241 216.265625 L 136.636719 216.265625 C 134.769531 216.265625 132.90625 216.316406 131.046875 216.40625 C 129.183594 216.5 127.324219 216.640625 125.46875 216.824219 C 123.617188 217.007812 121.765625 217.238281 119.921875 217.515625 C 118.078125 217.789062 116.242188 218.109375 114.414062 218.476562 C 112.585938 218.839844 110.769531 219.25 108.960938 219.707031 C 107.152344 220.160156 105.355469 220.660156 103.574219 221.199219 C 101.789062 221.742188 100.019531 222.328125 98.265625 222.960938 C 96.507812 223.589844 94.769531 224.261719 93.050781 224.976562 C 91.328125 225.691406 89.625 226.445312 87.9375 227.246094 C 86.253906 228.042969 84.589844 228.882812 82.945312 229.761719 C 81.300781 230.644531 79.679688 231.5625 78.082031 232.523438 C 76.484375 233.480469 74.910156 234.480469 73.359375 235.515625 C 71.808594 236.554688 70.285156 237.628906 68.789062 238.738281 C 67.292969 239.851562 65.824219 241 64.382812 242.183594 C 62.941406 243.367188 61.53125 244.585938 60.148438 245.835938 C 58.769531 247.089844 57.417969 248.375 56.101562 249.695312 C 54.78125 251.015625 53.496094 252.363281 52.246094 253.746094 C 50.992188 255.128906 49.773438 256.539062 48.59375 257.984375 C 47.410156 259.425781 46.261719 260.894531 45.152344 262.394531 C 44.042969 263.890625 42.96875 265.414062 41.929688 266.964844 C 40.894531 268.515625 39.898438 270.09375 38.9375 271.691406 C 37.980469 273.292969 37.0625 274.914062 36.179688 276.558594 C 35.300781 278.203125 34.464844 279.871094 33.664062 281.554688 C 32.867188 283.242188 32.113281 284.945312 31.398438 286.667969 C 30.683594 288.390625 30.011719 290.132812 29.382812 291.886719 C 28.753906 293.644531 28.167969 295.414062 27.625 297.199219 C 27.082031 298.984375 26.585938 300.78125 26.128906 302.589844 C 25.675781 304.398438 25.265625 306.21875 24.902344 308.046875 C 24.535156 309.878906 24.214844 311.714844 23.941406 313.558594 C 23.667969 315.40625 23.4375 317.253906 23.253906 319.113281 C 23.066406 320.96875 22.929688 322.828125 22.835938 324.691406 C 22.742188 326.554688 22.695312 328.417969 22.691406 330.285156 L 22.691406 365.117188 C 22.691406 365.757812 22.753906 366.394531 22.878906 367.023438 C 23.003906 367.652344 23.191406 368.265625 23.4375 368.859375 C 23.683594 369.449219 23.984375 370.015625 24.339844 370.546875 C 24.695312 371.082031 25.101562 371.574219 25.554688 372.03125 C 26.007812 372.484375 26.503906 372.890625 27.035156 373.246094 C 27.570312 373.601562 28.132812 373.902344 28.726562 374.148438 C 29.316406 374.394531 29.929688 374.582031 30.558594 374.707031 C 31.1875 374.832031 31.824219 374.894531 32.464844 374.894531 L 345.171875 374.894531 C 345.8125 374.894531 346.449219 374.832031 347.078125 374.707031 C 347.707031 374.582031 348.316406 374.394531 348.910156 374.148438 C 349.503906 373.902344 350.066406 373.601562 350.601562 373.246094 C 351.132812 372.890625 351.625 372.484375 352.082031 372.03125 C 352.535156 371.574219 352.9375 371.082031 353.296875 370.546875 C 353.652344 370.015625 353.953125 369.449219 354.199219 368.859375 C 354.445312 368.265625 354.628906 367.652344 354.753906 367.023438 C 354.878906 366.394531 354.941406 365.757812 354.941406 365.117188 L 354.941406 330.285156 C 354.941406 328.417969 354.894531 326.554688 354.800781 324.691406 C 354.707031 322.828125 354.566406 320.96875 354.382812 319.113281 C 354.199219 317.253906 353.96875 315.40625 353.695312 313.558594 C 353.417969 311.714844 353.097656 309.878906 352.734375 308.046875 C 352.367188 306.21875 351.960938 304.398438 351.503906 302.589844 C 351.050781 300.78125 350.550781 298.984375 350.011719 297.199219 C 349.46875 295.414062 348.882812 293.644531 348.253906 291.886719 C 347.625 290.132812 346.953125 288.390625 346.238281 286.667969 C 345.523438 284.945312 344.769531 283.242188 343.96875 281.554688 C 343.171875 279.871094 342.332031 278.203125 341.453125 276.558594 C 340.574219 274.914062 339.65625 273.292969 338.695312 271.691406 C 337.738281 270.09375 336.738281 268.515625 335.703125 266.964844 C 334.667969 265.414062 333.59375 263.890625 332.484375 262.394531 C 331.371094 260.894531 330.226562 259.425781 329.042969 257.984375 C 327.859375 256.539062 326.644531 255.128906 325.390625 253.746094 C 324.140625 252.363281 322.855469 251.015625 321.535156 249.695312 C 320.21875 248.375 318.867188 247.089844 317.488281 245.835938 C 316.105469 244.585938 314.695312 243.367188 313.253906 242.183594 C 311.8125 241 310.34375 239.851562 308.847656 238.738281 C 307.347656 237.628906 305.824219 236.554688 304.277344 235.515625 C 302.726562 234.480469 301.152344 233.480469 299.554688 232.523438 C 297.953125 231.5625 296.332031 230.644531 294.6875 229.761719 C 293.046875 228.882812 291.382812 228.042969 289.695312 227.246094 C 288.011719 226.445312 286.308594 225.691406 284.585938 224.976562 C 282.863281 224.261719 281.125 223.589844 279.371094 222.960938 C 277.617188 222.328125 275.847656 221.742188 274.0625 221.203125 C 272.28125 220.660156 270.484375 220.160156 268.675781 219.707031 C 266.867188 219.25 265.050781 218.839844 263.222656 218.476562 C 261.394531 218.109375 259.558594 217.789062 257.714844 217.515625 C 255.871094 217.238281 254.019531 217.007812 252.164062 216.824219 C 250.308594 216.640625 248.453125 216.5 246.589844 216.40625 C 244.726562 216.316406 242.863281 216.265625 241 216.265625 Z M 241 216.265625 " fill-opacity="1" fill-rule="nonzero"/></g><g clip-path="url(#79b86c6ec7)"><path fill="#000000" d="M 276.765625 91.3125 C 276.765625 92.753906 276.730469 94.195312 276.660156 95.632812 C 276.589844 97.070312 276.484375 98.507812 276.34375 99.941406 C 276.203125 101.375 276.027344 102.800781 275.8125 104.226562 C 275.601562 105.652344 275.355469 107.070312 275.078125 108.484375 C 274.796875 109.894531 274.480469 111.300781 274.128906 112.699219 C 273.78125 114.09375 273.398438 115.484375 272.980469 116.859375 C 272.5625 118.238281 272.109375 119.605469 271.625 120.964844 C 271.140625 122.320312 270.621094 123.664062 270.070312 124.992188 C 269.519531 126.324219 268.9375 127.640625 268.320312 128.941406 C 267.707031 130.246094 267.058594 131.53125 266.382812 132.800781 C 265.703125 134.070312 264.992188 135.324219 264.253906 136.558594 C 263.515625 137.792969 262.742188 139.011719 261.945312 140.207031 C 261.144531 141.40625 260.316406 142.582031 259.457031 143.738281 C 258.601562 144.898438 257.714844 146.03125 256.804688 147.144531 C 255.890625 148.257812 254.949219 149.347656 253.984375 150.417969 C 253.015625 151.484375 252.023438 152.527344 251.007812 153.542969 C 249.988281 154.5625 248.945312 155.554688 247.878906 156.523438 C 246.8125 157.492188 245.722656 158.429688 244.613281 159.34375 C 243.5 160.257812 242.363281 161.144531 241.207031 162.003906 C 240.050781 162.859375 238.875 163.691406 237.679688 164.488281 C 236.484375 165.289062 235.265625 166.058594 234.03125 166.800781 C 232.796875 167.542969 231.546875 168.25 230.277344 168.929688 C 229.007812 169.609375 227.722656 170.257812 226.421875 170.871094 C 225.121094 171.488281 223.804688 172.070312 222.472656 172.621094 C 221.144531 173.171875 219.800781 173.691406 218.445312 174.175781 C 217.089844 174.664062 215.726562 175.113281 214.347656 175.53125 C 212.96875 175.949219 211.582031 176.335938 210.1875 176.683594 C 208.792969 177.035156 207.386719 177.347656 205.976562 177.628906 C 204.5625 177.910156 203.144531 178.15625 201.722656 178.367188 C 200.296875 178.582031 198.871094 178.757812 197.4375 178.898438 C 196.003906 179.039062 194.570312 179.144531 193.132812 179.214844 C 191.695312 179.285156 190.257812 179.320312 188.816406 179.320312 C 187.378906 179.320312 185.941406 179.285156 184.503906 179.214844 C 183.066406 179.144531 181.628906 179.039062 180.199219 178.898438 C 178.765625 178.757812 177.335938 178.582031 175.914062 178.367188 C 174.488281 178.15625 173.070312 177.910156 171.660156 177.628906 C 170.25 177.347656 168.84375 177.035156 167.449219 176.683594 C 166.050781 176.335938 164.664062 175.949219 163.289062 175.53125 C 161.910156 175.113281 160.542969 174.664062 159.1875 174.175781 C 157.832031 173.691406 156.492188 173.171875 155.160156 172.621094 C 153.832031 172.070312 152.515625 171.488281 151.214844 170.871094 C 149.914062 170.257812 148.628906 169.609375 147.359375 168.929688 C 146.089844 168.25 144.835938 167.542969 143.601562 166.800781 C 142.367188 166.058594 141.152344 165.289062 139.957031 164.488281 C 138.757812 163.691406 137.582031 162.859375 136.425781 162.003906 C 135.269531 161.144531 134.136719 160.257812 133.023438 159.34375 C 131.910156 158.429688 130.820312 157.492188 129.753906 156.523438 C 128.6875 155.554688 127.648438 154.5625 126.628906 153.542969 C 125.609375 152.527344 124.617188 151.484375 123.652344 150.417969 C 122.6875 149.347656 121.746094 148.257812 120.832031 147.144531 C 119.917969 146.03125 119.035156 144.898438 118.175781 143.738281 C 117.320312 142.582031 116.492188 141.40625 115.691406 140.207031 C 114.890625 139.011719 114.121094 137.792969 113.382812 136.558594 C 112.640625 135.324219 111.933594 134.070312 111.253906 132.800781 C 110.574219 131.53125 109.929688 130.246094 109.3125 128.941406 C 108.699219 127.640625 108.113281 126.324219 107.5625 124.992188 C 107.011719 123.664062 106.496094 122.320312 106.011719 120.964844 C 105.527344 119.605469 105.074219 118.238281 104.65625 116.859375 C 104.238281 115.484375 103.855469 114.09375 103.503906 112.699219 C 103.15625 111.300781 102.839844 109.894531 102.558594 108.484375 C 102.277344 107.070312 102.03125 105.652344 101.820312 104.226562 C 101.609375 102.800781 101.433594 101.375 101.292969 99.941406 C 101.152344 98.507812 101.046875 97.070312 100.976562 95.632812 C 100.90625 94.195312 100.871094 92.753906 100.871094 91.3125 C 100.871094 89.875 100.90625 88.433594 100.976562 86.996094 C 101.046875 85.558594 101.152344 84.121094 101.292969 82.6875 C 101.433594 81.253906 101.609375 79.824219 101.820312 78.402344 C 102.03125 76.976562 102.277344 75.558594 102.558594 74.144531 C 102.839844 72.730469 103.15625 71.328125 103.503906 69.929688 C 103.855469 68.53125 104.238281 67.144531 104.65625 65.765625 C 105.074219 64.386719 105.527344 63.019531 106.011719 61.664062 C 106.496094 60.308594 107.011719 58.964844 107.5625 57.636719 C 108.113281 56.304688 108.699219 54.988281 109.3125 53.6875 C 109.929688 52.382812 110.574219 51.097656 111.253906 49.828125 C 111.933594 48.558594 112.640625 47.304688 113.382812 46.070312 C 114.121094 44.832031 114.890625 43.617188 115.691406 42.417969 C 116.492188 41.222656 117.320312 40.042969 118.175781 38.886719 C 119.035156 37.730469 119.917969 36.597656 120.832031 35.484375 C 121.746094 34.371094 122.6875 33.277344 123.652344 32.210938 C 124.617188 31.144531 125.609375 30.101562 126.628906 29.082031 C 127.648438 28.066406 128.6875 27.070312 129.753906 26.105469 C 130.820312 25.136719 131.910156 24.195312 133.023438 23.285156 C 134.136719 22.371094 135.269531 21.484375 136.425781 20.625 C 137.582031 19.769531 138.757812 18.9375 139.957031 18.136719 C 141.152344 17.339844 142.367188 16.566406 143.601562 15.828125 C 144.835938 15.085938 146.089844 14.378906 147.359375 13.699219 C 148.628906 13.019531 149.914062 12.371094 151.214844 11.757812 C 152.515625 11.140625 153.832031 10.558594 155.160156 10.003906 C 156.492188 9.453125 157.832031 8.9375 159.1875 8.449219 C 160.542969 7.964844 161.910156 7.515625 163.289062 7.097656 C 164.664062 6.679688 166.050781 6.292969 167.449219 5.945312 C 168.84375 5.59375 170.25 5.277344 171.660156 4.996094 C 173.070312 4.714844 174.488281 4.46875 175.914062 4.257812 C 177.335938 4.046875 178.765625 3.871094 180.199219 3.730469 C 181.628906 3.589844 183.066406 3.484375 184.503906 3.414062 C 185.941406 3.34375 187.378906 3.304688 188.816406 3.304688 C 190.257812 3.304688 191.695312 3.34375 193.132812 3.414062 C 194.570312 3.484375 196.003906 3.589844 197.4375 3.730469 C 198.871094 3.871094 200.296875 4.046875 201.722656 4.257812 C 203.144531 4.46875 204.5625 4.714844 205.976562 4.996094 C 207.386719 5.277344 208.792969 5.59375 210.1875 5.945312 C 211.582031 6.292969 212.96875 6.679688 214.347656 7.097656 C 215.726562 7.515625 217.089844 7.964844 218.445312 8.449219 C 219.800781 8.9375 221.144531 9.453125 222.472656 10.003906 C 223.804688 10.558594 225.121094 11.140625 226.421875 11.757812 C 227.722656 12.371094 229.007812 13.019531 230.277344 13.699219 C 231.546875 14.378906 232.796875 15.085938 234.03125 15.828125 C 235.265625 16.566406 236.484375 17.339844 237.679688 18.136719 C 238.875 18.9375 240.050781 19.769531 241.207031 20.625 C 242.363281 21.484375 243.5 22.371094 244.613281 23.285156 C 245.722656 24.195312 246.8125 25.136719 247.878906 26.105469 C 248.945312 27.070312 249.988281 28.066406 251.007812 29.082031 C 252.023438 30.101562 253.015625 31.144531 253.984375 32.210938 C 254.949219 33.277344 255.890625 34.371094 256.804688 35.484375 C 257.714844 36.597656 258.601562 37.730469 259.457031 38.886719 C 260.316406 40.042969 261.144531 41.222656 261.945312 42.417969 C 262.742188 43.617188 263.515625 44.832031 264.253906 46.070312 C 264.992188 47.304688 265.703125 48.558594 266.382812 49.828125 C 267.058594 51.097656 267.707031 52.382812 268.320312 53.6875 C 268.9375 54.988281 269.519531 56.304688 270.070312 57.636719 C 270.621094 58.964844 271.140625 60.308594 271.625 61.664062 C 272.109375 63.019531 272.5625 64.386719 272.980469 65.765625 C 273.398438 67.144531 273.78125 68.53125 274.128906 69.929688 C 274.480469 71.328125 274.796875 72.730469 275.078125 74.144531 C 275.355469 75.558594 275.601562 76.976562 275.8125 78.402344 C 276.027344 79.824219 276.203125 81.253906 276.34375 82.6875 C 276.484375 84.121094 276.589844 85.558594 276.660156 86.996094 C 276.730469 88.433594 276.765625 89.875 276.765625 91.3125 Z M 276.765625 91.3125 " fill-opacity="1" fill-rule="nonzero"/></g></svg>