<svg xmlns="http://www.w3.org/2000/svg" xmlns:xlink="http://www.w3.org/1999/xlink" width="500" zoomAndPan="magnify" viewBox="0 0 375 374.999991" height="500" preserveAspectRatio="xMidYMid meet" version="1.0"><defs><clipPath id="5e62b5eed0"><path d="M 12.5625 8.535156 L 313 8.535156 L 313 309 L 12.5625 309 Z M 12.5625 8.535156 " clip-rule="nonzero"/></clipPath><clipPath id="b01625ea05"><path d="M 246.109375 245 L 267.109375 245 L 267.109375 248 L 246.109375 248 Z M 246.109375 245 " clip-rule="nonzero"/></clipPath><clipPath id="7da56d0222"><path d="M 246.109375 239.699219 L 267.109375 239.699219 L 267.109375 242 L 246.109375 242 Z M 246.109375 239.699219 " clip-rule="nonzero"/></clipPath><clipPath id="e485cf63b0"><path d="M 246.117188 251.414062 L 267.101562 251.414062 L 267.101562 253.199219 L 246.117188 253.199219 Z M 246.117188 251.414062 " clip-rule="nonzero"/></clipPath></defs><g clip-path="url(#5e62b5eed0)"><path fill="#000000" d="M 162.28125 308.363281 C 159.832031 308.363281 157.382812 308.300781 154.9375 308.179688 C 152.488281 308.0625 150.046875 307.878906 147.609375 307.640625 C 145.167969 307.398438 142.738281 307.101562 140.3125 306.742188 C 137.890625 306.382812 135.476562 305.960938 133.074219 305.484375 C 130.671875 305.007812 128.28125 304.46875 125.902344 303.875 C 123.527344 303.277344 121.164062 302.625 118.820312 301.914062 C 116.476562 301.203125 114.152344 300.433594 111.84375 299.609375 C 109.535156 298.785156 107.25 297.902344 104.988281 296.964844 C 102.722656 296.027344 100.484375 295.035156 98.269531 293.988281 C 96.054688 292.9375 93.867188 291.835938 91.703125 290.683594 C 89.542969 289.527344 87.414062 288.320312 85.3125 287.058594 C 83.210938 285.800781 81.140625 284.488281 79.101562 283.128906 C 77.066406 281.765625 75.0625 280.355469 73.09375 278.898438 C 71.125 277.4375 69.195312 275.929688 67.300781 274.375 C 65.40625 272.820312 63.550781 271.222656 61.734375 269.574219 C 59.921875 267.929688 58.148438 266.242188 56.414062 264.507812 C 54.679688 262.777344 52.992188 261 51.347656 259.1875 C 49.699219 257.371094 48.101562 255.515625 46.546875 253.621094 C 44.992188 251.726562 43.484375 249.796875 42.027344 247.828125 C 40.566406 245.859375 39.15625 243.855469 37.792969 241.820312 C 36.433594 239.78125 35.121094 237.710938 33.863281 235.609375 C 32.601562 233.507812 31.394531 231.378906 30.242188 229.21875 C 29.085938 227.054688 27.984375 224.867188 26.9375 222.652344 C 25.890625 220.4375 24.894531 218.199219 23.957031 215.933594 C 23.019531 213.671875 22.140625 211.386719 21.3125 209.078125 C 20.488281 206.769531 19.71875 204.445312 19.007812 202.101562 C 18.296875 199.753906 17.644531 197.394531 17.046875 195.019531 C 16.453125 192.640625 15.917969 190.25 15.4375 187.847656 C 14.960938 185.445312 14.542969 183.03125 14.183594 180.605469 C 13.824219 178.183594 13.523438 175.75 13.28125 173.3125 C 13.042969 170.875 12.863281 168.433594 12.742188 165.984375 C 12.621094 163.535156 12.5625 161.089844 12.5625 158.636719 C 12.5625 156.1875 12.621094 153.738281 12.742188 151.292969 C 12.863281 148.84375 13.042969 146.402344 13.28125 143.960938 C 13.523438 141.523438 13.824219 139.09375 14.183594 136.667969 C 14.542969 134.246094 14.960938 131.832031 15.4375 129.429688 C 15.917969 127.023438 16.453125 124.632812 17.046875 122.257812 C 17.644531 119.882812 18.296875 117.519531 19.007812 115.175781 C 19.71875 112.832031 20.488281 110.503906 21.3125 108.199219 C 22.140625 105.890625 23.019531 103.605469 23.957031 101.339844 C 24.894531 99.078125 25.890625 96.835938 26.9375 94.621094 C 27.984375 92.40625 29.085938 90.21875 30.242188 88.058594 C 31.394531 85.898438 32.601562 83.765625 33.863281 81.664062 C 35.121094 79.5625 36.433594 77.492188 37.792969 75.457031 C 39.15625 73.417969 40.566406 71.414062 42.027344 69.449219 C 43.484375 67.480469 44.992188 65.546875 46.546875 63.652344 C 48.101562 61.761719 49.699219 59.90625 51.347656 58.089844 C 52.992188 56.273438 54.679688 54.5 56.414062 52.765625 C 58.148438 51.035156 59.921875 49.34375 61.734375 47.699219 C 63.550781 46.054688 65.40625 44.453125 67.300781 42.898438 C 69.195312 41.34375 71.125 39.839844 73.09375 38.378906 C 75.0625 36.917969 77.066406 35.507812 79.101562 34.148438 C 81.140625 32.785156 83.210938 31.476562 85.3125 30.214844 C 87.414062 28.957031 89.542969 27.75 91.703125 26.59375 C 93.867188 25.4375 96.054688 24.335938 98.269531 23.289062 C 100.484375 22.242188 102.722656 21.25 104.988281 20.3125 C 107.25 19.375 109.535156 18.492188 111.84375 17.667969 C 114.148438 16.839844 116.476562 16.074219 118.820312 15.359375 C 121.164062 14.648438 123.527344 13.996094 125.902344 13.402344 C 128.28125 12.804688 130.671875 12.269531 133.074219 11.789062 C 135.476562 11.3125 137.890625 10.894531 140.3125 10.535156 C 142.738281 10.175781 145.167969 9.875 147.609375 9.636719 C 150.046875 9.394531 152.488281 9.214844 154.9375 9.09375 C 157.382812 8.972656 159.832031 8.914062 162.28125 8.914062 C 164.734375 8.914062 167.183594 8.972656 169.628906 9.09375 C 172.078125 9.214844 174.519531 9.394531 176.957031 9.636719 C 179.398438 9.875 181.828125 10.175781 184.25 10.535156 C 186.675781 10.894531 189.089844 11.3125 191.492188 11.789062 C 193.894531 12.269531 196.285156 12.804688 198.664062 13.402344 C 201.039062 13.996094 203.398438 14.648438 205.746094 15.359375 C 208.089844 16.074219 210.414062 16.839844 212.722656 17.667969 C 215.03125 18.492188 217.316406 19.375 219.578125 20.3125 C 221.84375 21.25 224.082031 22.242188 226.296875 23.289062 C 228.511719 24.335938 230.699219 25.4375 232.859375 26.59375 C 235.023438 27.75 237.152344 28.957031 239.253906 30.214844 C 241.355469 31.476562 243.425781 32.785156 245.464844 34.148438 C 247.5 35.507812 249.503906 36.917969 251.472656 38.378906 C 253.441406 39.839844 255.371094 41.34375 257.265625 42.898438 C 259.160156 44.453125 261.015625 46.054688 262.828125 47.699219 C 264.644531 49.34375 266.417969 51.035156 268.152344 52.765625 C 269.882812 54.5 271.574219 56.273438 273.21875 58.089844 C 274.863281 59.90625 276.464844 61.761719 278.019531 63.652344 C 279.574219 65.546875 281.082031 67.480469 282.539062 69.449219 C 284 71.414062 285.410156 73.417969 286.773438 75.457031 C 288.132812 77.492188 289.445312 79.5625 290.703125 81.664062 C 291.964844 83.765625 293.171875 85.898438 294.324219 88.058594 C 295.480469 90.21875 296.582031 92.40625 297.628906 94.621094 C 298.675781 96.835938 299.671875 99.078125 300.609375 101.339844 C 301.546875 103.605469 302.425781 105.890625 303.253906 108.199219 C 304.078125 110.503906 304.847656 112.832031 305.558594 115.175781 C 306.269531 117.519531 306.921875 119.882812 307.515625 122.257812 C 308.113281 124.632812 308.648438 127.023438 309.128906 129.429688 C 309.605469 131.832031 310.023438 134.246094 310.382812 136.667969 C 310.742188 139.09375 311.042969 141.523438 311.285156 143.960938 C 311.523438 146.402344 311.703125 148.84375 311.824219 151.292969 C 311.945312 153.738281 312.003906 156.1875 312.003906 158.636719 C 312.003906 161.089844 311.945312 163.535156 311.824219 165.984375 C 311.703125 168.433594 311.523438 170.875 311.285156 173.3125 C 311.042969 175.75 310.742188 178.183594 310.382812 180.605469 C 310.023438 183.03125 309.605469 185.445312 309.128906 187.847656 C 308.648438 190.25 308.113281 192.640625 307.519531 195.019531 C 306.921875 197.394531 306.269531 199.753906 305.558594 202.101562 C 304.847656 204.445312 304.078125 206.769531 303.253906 209.078125 C 302.425781 211.386719 301.546875 213.671875 300.609375 215.933594 C 299.671875 218.199219 298.675781 220.4375 297.628906 222.652344 C 296.582031 224.867188 295.480469 227.054688 294.324219 229.21875 C 293.171875 231.378906 291.964844 233.507812 290.703125 235.609375 C 289.445312 237.710938 288.132812 239.78125 286.773438 241.820312 C 285.410156 243.855469 284 245.859375 282.539062 247.828125 C 281.082031 249.796875 279.574219 251.726562 278.019531 253.621094 C 276.464844 255.515625 274.863281 257.371094 273.21875 259.1875 C 271.574219 261 269.882812 262.777344 268.152344 264.507812 C 266.417969 266.242188 264.644531 267.929688 262.828125 269.574219 C 261.015625 271.222656 259.160156 272.820312 257.265625 274.375 C 255.371094 275.929688 253.441406 277.4375 251.472656 278.898438 C 249.503906 280.355469 247.5 281.765625 245.464844 283.128906 C 243.425781 284.488281 241.355469 285.800781 239.253906 287.058594 C 237.152344 288.320312 235.023438 289.527344 232.859375 290.683594 C 230.699219 291.835938 228.511719 292.9375 226.296875 293.988281 C 224.082031 295.035156 221.84375 296.027344 219.578125 296.964844 C 217.316406 297.902344 215.03125 298.785156 212.722656 299.609375 C 210.414062 300.433594 208.089844 301.203125 205.746094 301.914062 C 203.398438 302.625 201.039062 303.277344 198.664062 303.875 C 196.285156 304.46875 193.894531 305.007812 191.492188 305.484375 C 189.089844 305.960938 186.675781 306.382812 184.25 306.742188 C 181.828125 307.101562 179.398438 307.398438 176.957031 307.640625 C 174.519531 307.878906 172.078125 308.0625 169.628906 308.179688 C 167.183594 308.300781 164.734375 308.363281 162.28125 308.363281 Z M 162.28125 42.1875 C 160.378906 42.1875 158.472656 42.234375 156.570312 42.328125 C 154.664062 42.417969 152.765625 42.558594 150.867188 42.746094 C 148.972656 42.933594 147.082031 43.167969 145.195312 43.445312 C 143.3125 43.726562 141.433594 44.050781 139.566406 44.421875 C 137.695312 44.796875 135.835938 45.210938 133.988281 45.675781 C 132.140625 46.140625 130.304688 46.648438 128.480469 47.199219 C 126.65625 47.753906 124.847656 48.351562 123.050781 48.992188 C 121.257812 49.636719 119.480469 50.320312 117.71875 51.050781 C 115.957031 51.78125 114.21875 52.550781 112.496094 53.367188 C 110.769531 54.179688 109.070312 55.039062 107.390625 55.9375 C 105.707031 56.835938 104.050781 57.773438 102.414062 58.753906 C 100.78125 59.734375 99.171875 60.753906 97.585938 61.8125 C 96.003906 62.871094 94.445312 63.96875 92.914062 65.101562 C 91.382812 66.238281 89.882812 67.410156 88.40625 68.621094 C 86.933594 69.828125 85.492188 71.074219 84.078125 72.351562 C 82.667969 73.632812 81.289062 74.945312 79.941406 76.292969 C 78.59375 77.640625 77.277344 79.019531 76 80.433594 C 74.71875 81.84375 73.476562 83.289062 72.265625 84.761719 C 71.058594 86.234375 69.882812 87.738281 68.75 89.265625 C 67.613281 90.796875 66.515625 92.355469 65.457031 93.941406 C 64.398438 95.523438 63.378906 97.136719 62.402344 98.769531 C 61.421875 100.402344 60.480469 102.0625 59.582031 103.742188 C 58.683594 105.421875 57.828125 107.125 57.011719 108.847656 C 56.199219 110.570312 55.425781 112.3125 54.695312 114.074219 C 53.96875 115.835938 53.28125 117.613281 52.640625 119.40625 C 51.996094 121.199219 51.402344 123.011719 50.847656 124.832031 C 50.292969 126.65625 49.785156 128.492188 49.324219 130.34375 C 48.859375 132.191406 48.441406 134.050781 48.070312 135.917969 C 47.699219 137.789062 47.371094 139.664062 47.09375 141.550781 C 46.8125 143.4375 46.582031 145.328125 46.394531 147.222656 C 46.207031 149.121094 46.066406 151.019531 45.972656 152.921875 C 45.878906 154.828125 45.832031 156.730469 45.832031 158.636719 C 45.832031 160.542969 45.878906 162.449219 45.972656 164.351562 C 46.066406 166.253906 46.207031 168.15625 46.394531 170.050781 C 46.582031 171.949219 46.8125 173.839844 47.09375 175.726562 C 47.371094 177.609375 47.699219 179.488281 48.070312 181.355469 C 48.441406 183.226562 48.859375 185.085938 49.324219 186.933594 C 49.785156 188.78125 50.292969 190.617188 50.847656 192.441406 C 51.402344 194.265625 51.996094 196.074219 52.640625 197.871094 C 53.28125 199.664062 53.96875 201.441406 54.695312 203.203125 C 55.425781 204.960938 56.199219 206.703125 57.011719 208.425781 C 57.828125 210.148438 58.683594 211.851562 59.582031 213.53125 C 60.480469 215.214844 61.421875 216.871094 62.402344 218.507812 C 63.378906 220.140625 64.398438 221.75 65.457031 223.335938 C 66.515625 224.917969 67.613281 226.476562 68.75 228.007812 C 69.882812 229.539062 71.058594 231.039062 72.265625 232.515625 C 73.476562 233.988281 74.71875 235.429688 76 236.84375 C 77.277344 238.253906 78.59375 239.632812 79.941406 240.980469 C 81.289062 242.328125 82.667969 243.644531 84.078125 244.921875 C 85.492188 246.203125 86.933594 247.445312 88.40625 248.65625 C 89.882812 249.867188 91.382812 251.039062 92.914062 252.171875 C 94.445312 253.308594 96.003906 254.40625 97.585938 255.464844 C 99.171875 256.523438 100.78125 257.542969 102.414062 258.523438 C 104.050781 259.5 105.707031 260.441406 107.390625 261.339844 C 109.070312 262.238281 110.769531 263.09375 112.496094 263.910156 C 114.21875 264.722656 115.957031 265.496094 117.71875 266.226562 C 119.480469 266.953125 121.257812 267.640625 123.050781 268.28125 C 124.847656 268.925781 126.65625 269.523438 128.480469 270.074219 C 130.304688 270.628906 132.140625 271.136719 133.988281 271.597656 C 135.835938 272.0625 137.695312 272.480469 139.566406 272.851562 C 141.433594 273.222656 143.3125 273.550781 145.195312 273.828125 C 147.082031 274.109375 148.972656 274.34375 150.867188 274.527344 C 152.765625 274.714844 154.664062 274.855469 156.570312 274.949219 C 158.472656 275.042969 160.378906 275.089844 162.28125 275.089844 C 164.1875 275.089844 166.09375 275.042969 167.996094 274.949219 C 169.902344 274.855469 171.800781 274.714844 173.695312 274.527344 C 175.59375 274.34375 177.484375 274.109375 179.371094 273.828125 C 181.253906 273.550781 183.132812 273.222656 185 272.851562 C 186.871094 272.480469 188.730469 272.0625 190.578125 271.597656 C 192.425781 271.136719 194.261719 270.628906 196.085938 270.074219 C 197.910156 269.523438 199.71875 268.925781 201.515625 268.28125 C 203.308594 267.640625 205.085938 266.953125 206.847656 266.226562 C 208.605469 265.496094 210.347656 264.722656 212.070312 263.910156 C 213.792969 263.09375 215.496094 262.238281 217.175781 261.339844 C 218.859375 260.441406 220.515625 259.5 222.148438 258.523438 C 223.785156 257.542969 225.394531 256.523438 226.980469 255.464844 C 228.5625 254.40625 230.121094 253.308594 231.652344 252.171875 C 233.183594 251.039062 234.683594 249.867188 236.15625 248.65625 C 237.632812 247.445312 239.074219 246.203125 240.484375 244.921875 C 241.898438 243.644531 243.277344 242.328125 244.625 240.980469 C 245.972656 239.632812 247.285156 238.253906 248.566406 236.84375 C 249.847656 235.429688 251.089844 233.988281 252.300781 232.515625 C 253.507812 231.039062 254.679688 229.539062 255.816406 228.007812 C 256.953125 226.476562 258.050781 224.917969 259.109375 223.335938 C 260.167969 221.75 261.1875 220.140625 262.164062 218.507812 C 263.144531 216.871094 264.085938 215.214844 264.984375 213.53125 C 265.882812 211.851562 266.738281 210.148438 267.550781 208.425781 C 268.367188 206.703125 269.140625 204.960938 269.867188 203.203125 C 270.597656 201.441406 271.285156 199.664062 271.925781 197.871094 C 272.566406 196.074219 273.164062 194.265625 273.71875 192.441406 C 274.273438 190.617188 274.78125 188.78125 275.242188 186.933594 C 275.707031 185.085938 276.125 183.226562 276.496094 181.355469 C 276.867188 179.488281 277.191406 177.609375 277.472656 175.726562 C 277.753906 173.839844 277.984375 171.949219 278.171875 170.050781 C 278.359375 168.15625 278.5 166.253906 278.59375 164.351562 C 278.6875 162.449219 278.734375 160.542969 278.734375 158.636719 C 278.734375 156.730469 278.6875 154.828125 278.59375 152.921875 C 278.5 151.019531 278.359375 149.121094 278.171875 147.222656 C 277.984375 145.328125 277.753906 143.4375 277.472656 141.550781 C 277.191406 139.664062 276.867188 137.789062 276.496094 135.917969 C 276.125 134.050781 275.707031 132.191406 275.242188 130.34375 C 274.78125 128.492188 274.273438 126.65625 273.71875 124.832031 C 273.164062 123.011719 272.566406 121.199219 271.925781 119.40625 C 271.285156 117.613281 270.597656 115.835938 269.867188 114.074219 C 269.140625 112.3125 268.367188 110.570312 267.550781 108.847656 C 266.738281 107.125 265.882812 105.421875 264.984375 103.742188 C 264.085938 102.0625 263.144531 100.402344 262.164062 98.769531 C 261.1875 97.136719 260.167969 95.523438 259.109375 93.941406 C 258.050781 92.355469 256.953125 90.796875 255.816406 89.265625 C 254.679688 87.738281 253.507812 86.234375 252.300781 84.761719 C 251.089844 83.289062 249.847656 81.84375 248.566406 80.433594 C 247.285156 79.019531 245.972656 77.640625 244.625 76.292969 C 243.277344 74.945312 241.898438 73.632812 240.484375 72.351562 C 239.074219 71.074219 237.632812 69.828125 236.160156 68.621094 C 234.683594 67.410156 233.183594 66.238281 231.652344 65.101562 C 230.121094 63.96875 228.5625 62.871094 226.980469 61.8125 C 225.394531 60.753906 223.785156 59.734375 222.148438 58.753906 C 220.515625 57.773438 218.859375 56.835938 217.175781 55.9375 C 215.496094 55.039062 213.792969 54.179688 212.070312 53.367188 C 210.347656 52.550781 208.605469 51.78125 206.847656 51.050781 C 205.085938 50.320312 203.308594 49.636719 201.515625 48.992188 C 199.71875 48.351562 197.910156 47.753906 196.085938 47.199219 C 194.261719 46.648438 192.425781 46.140625 190.578125 45.675781 C 188.730469 45.210938 186.871094 44.796875 185 44.421875 C 183.132812 44.050781 181.253906 43.726562 179.371094 43.445312 C 177.484375 43.167969 175.59375 42.933594 173.695312 42.746094 C 171.800781 42.558594 169.902344 42.417969 167.996094 42.328125 C 166.09375 42.234375 164.1875 42.1875 162.28125 42.1875 Z M 162.28125 42.1875 " fill-opacity="1" fill-rule="nonzero"/></g><path fill="#000000" d="M 353.011719 374.90625 C 350.808594 374.894531 348.691406 374.464844 346.660156 373.617188 C 344.628906 372.765625 342.835938 371.558594 341.285156 369.996094 L 240.636719 269.351562 C 240.253906 268.964844 239.886719 268.5625 239.542969 268.140625 C 239.195312 267.71875 238.871094 267.28125 238.570312 266.828125 C 238.269531 266.375 237.988281 265.90625 237.730469 265.425781 C 237.476562 264.945312 237.242188 264.453125 237.035156 263.949219 C 236.828125 263.445312 236.644531 262.933594 236.484375 262.414062 C 236.328125 261.890625 236.195312 261.363281 236.089844 260.828125 C 235.984375 260.292969 235.902344 259.757812 235.851562 259.214844 C 235.796875 258.671875 235.769531 258.128906 235.769531 257.582031 C 235.769531 257.039062 235.796875 256.496094 235.851562 255.953125 C 235.90625 255.410156 235.984375 254.871094 236.09375 254.335938 C 236.199219 253.804688 236.332031 253.273438 236.488281 252.753906 C 236.648438 252.230469 236.832031 251.71875 237.039062 251.214844 C 237.246094 250.714844 237.480469 250.222656 237.738281 249.742188 C 237.996094 249.261719 238.273438 248.792969 238.578125 248.339844 C 238.878906 247.886719 239.203125 247.449219 239.550781 247.027344 C 239.894531 246.609375 240.261719 246.203125 240.644531 245.820312 C 241.03125 245.433594 241.433594 245.070312 241.855469 244.722656 C 242.277344 244.378906 242.714844 244.054688 243.167969 243.75 C 243.621094 243.449219 244.085938 243.167969 244.566406 242.910156 C 245.046875 242.652344 245.539062 242.421875 246.042969 242.210938 C 246.546875 242.003906 247.058594 241.820312 247.582031 241.660156 C 248.101562 241.503906 248.628906 241.371094 249.164062 241.265625 C 249.699219 241.160156 250.238281 241.078125 250.777344 241.023438 C 251.320312 240.972656 251.863281 240.945312 252.410156 240.945312 C 252.953125 240.945312 253.5 240.96875 254.039062 241.023438 C 254.582031 241.078125 255.121094 241.15625 255.65625 241.261719 C 256.191406 241.367188 256.71875 241.5 257.238281 241.660156 C 257.761719 241.816406 258.273438 242 258.777344 242.207031 C 259.28125 242.414062 259.773438 242.648438 260.253906 242.90625 C 260.734375 243.160156 261.199219 243.441406 261.652344 243.742188 C 262.109375 244.046875 262.542969 244.371094 262.964844 244.714844 C 263.386719 245.058594 263.792969 245.425781 264.175781 245.808594 L 364.824219 346.457031 C 365.40625 347.035156 365.945312 347.65625 366.433594 348.3125 C 366.925781 348.972656 367.367188 349.660156 367.757812 350.386719 C 368.148438 351.109375 368.480469 351.855469 368.757812 352.628906 C 369.039062 353.402344 369.257812 354.191406 369.417969 354.996094 C 369.582031 355.804688 369.683594 356.617188 369.722656 357.4375 C 369.765625 358.257812 369.746094 359.074219 369.664062 359.894531 C 369.585938 360.710938 369.445312 361.519531 369.246094 362.316406 C 369.042969 363.113281 368.789062 363.890625 368.472656 364.648438 C 368.15625 365.40625 367.789062 366.140625 367.363281 366.84375 C 366.941406 367.546875 366.46875 368.214844 365.945312 368.851562 C 365.421875 369.484375 364.855469 370.078125 364.246094 370.625 C 363.636719 371.175781 362.988281 371.679688 362.304688 372.132812 C 361.621094 372.585938 360.90625 372.988281 360.160156 373.335938 C 359.417969 373.683594 358.652344 373.976562 357.863281 374.210938 C 357.078125 374.445312 356.277344 374.621094 355.464844 374.738281 C 354.652344 374.855469 353.832031 374.910156 353.011719 374.90625 Z M 353.011719 374.90625 " fill-opacity="1" fill-rule="nonzero"/><g clip-path="url(#b01625ea05)"><path fill="#000000" d="M 266.183594 247.328125 L 247.03125 247.328125 C 246.527344 247.328125 246.117188 246.933594 246.117188 246.449219 C 246.117188 245.960938 246.527344 245.566406 247.03125 245.566406 L 266.183594 245.566406 C 266.691406 245.566406 267.101562 245.960938 267.101562 246.449219 C 267.101562 246.933594 266.691406 247.328125 266.183594 247.328125 " fill-opacity="1" fill-rule="nonzero"/></g><g clip-path="url(#7da56d0222)"><path fill="#000000" d="M 266.183594 241.457031 L 247.03125 241.457031 C 246.527344 241.457031 246.117188 241.0625 246.117188 240.578125 C 246.117188 240.089844 246.527344 239.699219 247.03125 239.699219 L 266.183594 239.699219 C 266.691406 239.699219 267.101562 240.089844 267.101562 240.578125 C 267.101562 241.0625 266.691406 241.457031 266.183594 241.457031 " fill-opacity="1" fill-rule="nonzero"/></g><g clip-path="url(#e485cf63b0)"><path fill="#000000" d="M 266.183594 253.199219 L 247.03125 253.199219 C 246.527344 253.199219 246.117188 252.804688 246.117188 252.316406 C 246.117188 251.832031 246.527344 251.4375 247.03125 251.4375 L 266.183594 251.4375 C 266.691406 251.4375 267.101562 251.832031 267.101562 252.316406 C 267.101562 252.804688 266.691406 253.199219 266.183594 253.199219 " fill-opacity="1" fill-rule="nonzero"/></g></svg>